PathFileType	4	(X/Y/Z)	C:\Users\Basilio\Documents\Thesis Gigler\squatting_fais\c3dfiles\041\SLS_pre_front3\markers_experimental.trc
DataRate	CameraRate	NumFrames	NumMarkers	Units	OrigDataRate	OrigDataStartFrame	OrigNumFrames
200.000000	200.000000	4	62	mm	200.000000	608	1622
Frame#	Time	FHD			LBHD			RBHD			C7			T10			CLAV			LSHO			LUUPA			LMUPA			LDUPA			LLEP			LMEP			LRAD			LUL			LRFIN			RSHO			RUPA1			RMUPA			RDUPA			RLEP			RMEP			RRAD			RUL			RUFIN			LASI			RASI			USACR			LSACR			RSACR			LTHI1			LTHI2			LTHI3			LTHI4			LLFC			LMFC			LTIB1			LTIB2			LTIB3			LTIB4			LLMAL			LMMAL			LHEE			LMT1			LMT2			LMT5			RTHI			RTHI2			RTHI3			RTHI4			RLFC			RMFC			RTIB1			RTIB2			RTIB3			RTIB4			RLMAL			RMMAL			RHEE			RMT1			RMT2			RMT5			*61			
		X1	Y1	Z1	X2	Y2	Z2	X3	Y3	Z3	X4	Y4	Z4	X5	Y5	Z5	X6	Y6	Z6	X7	Y7	Z7	X8	Y8	Z8	X9	Y9	Z9	X10	Y10	Z10	X11	Y11	Z11	X12	Y12	Z12	X13	Y13	Z13	X14	Y14	Z14	X15	Y15	Z15	X16	Y16	Z16	X17	Y17	Z17	X18	Y18	Z18	X19	Y19	Z19	X20	Y20	Z20	X21	Y21	Z21	X22	Y22	Z22	X23	Y23	Z23	X24	Y24	Z24	X25	Y25	Z25	X26	Y26	Z26	X27	Y27	Z27	X28	Y28	Z28	X29	Y29	Z29	X30	Y30	Z30	X31	Y31	Z31	X32	Y32	Z32	X33	Y33	Z33	X34	Y34	Z34	X35	Y35	Z35	X36	Y36	Z36	X37	Y37	Z37	X38	Y38	Z38	X39	Y39	Z39	X40	Y40	Z40	X41	Y41	Z41	X42	Y42	Z42	X43	Y43	Z43	X44	Y44	Z44	X45	Y45	Z45	X46	Y46	Z46	X47	Y47	Z47	X48	Y48	Z48	X49	Y49	Z49	X50	Y50	Z50	X51	Y51	Z51	X52	Y52	Z52	X53	Y53	Z53	X54	Y54	Z54	X55	Y55	Z55	X56	Y56	Z56	X57	Y57	Z57	X58	Y58	Z58	X59	Y59	Z59	X60	Y60	Z60	X61	Y61	Z61	X62	Y62	Z62	

609	3.04	-252.9981536865235	1766.734130859375	-1103.031860351563	-424.4882202148439	1681.800659179688	-1172.19970703125	-400.926483154297	1689.28466796875	-1020.943908691406	-450.1035461425782	1535.37744140625	-1101.640380859375	-474.7542419433595	1224.02001953125	-1077.661865234375	-287.8824462890626	1488.609619140625	-1108.626342773438	-386.8235168457032	1546.376831054688	-1244.46044921875	-302.7019042968751	1529.876342773438	-1387.839111328125	-257.8205261230469	1548.114013671875	-1377.794921875	-251.3723907470704	1530.528076171875	-1436.099487304688	-208.4974212646485	1528.591796875	-1459.808349609375	-163.4751892089844	1461.459228515625	-1431.047485351563	68.49058532714845	1570.53173828125	-1503.776123046875	37.81783676147462	1570.997680664063	-1570.164794921875	126.9339447021485	1614.986450195313	-1527.45458984375	-369.6362304687501	1562.652587890625	-979.2510986328127	-232.784896850586	1558.7080078125	-853.402038574219	-213.9555053710938	1586.30078125	-890.8940429687502	-167.0772247314453	1584.025024414063	-854.2268066406252	-121.7945632934571	1591.234741210938	-853.6494750976565	-95.86801910400392	1513.25	-878.1753540039065	143.7389373779297	1615.226440429688	-916.0814208984377	140.1290588378907	1626.51123046875	-841.0780029296877	222.4022369384766	1639.1669921875	-919.0315551757815	-306.8520202636719	1033.479858398438	-1176.400024414063	-309.8418273925782	1053.269897460938	-954.191589355469	-488.7431640625001	1101.998046875	-1068.059692382813	-501.7420043945314	1072.459594726563	-1092.773559570313	-503.6846313476564	1076.840942382813	-1037.889892578125	-376.1622619628907	807.3927001953127	-1224.55078125	-322.0565185546876	742.6578369140626	-1217.659545898438	-276.9464721679688	758.1321411132814	-1213.018676757813	-333.9944458007813	684.2109375000001	-1201.457763671875	-274.2752685546876	521.9824218750001	-1170.872680664063	-261.3367614746094	516.8114013671876	-1053.567993164063	-268.5267333984376	336.1982116699219	-1095.601440429688	-325.9135742187501	296.6520080566407	-1150.769287109375	-287.9439086914063	287.6019287109376	-1126.117431640625	-302.5898742675782	217.0573425292969	-1084.1162109375	-379.4530334472657	131.5496673583985	-1111.161376953125	-340.4046630859376	141.0173950195313	-1030.585693359375	-448.0408630371095	118.4756622314453	-1063.917358398438	-241.8312530517579	63.18494415283205	-1040.61181640625	-235.7420654296876	56.17092514038087	-1085.602294921875	-285.1802368164063	42.70011520385743	-1138.352294921875	-275.0740051269532	810.4461059570315	-867.2987060546877	-210.6674499511719	797.4253540039065	-872.992614746094	-188.5590972900391	820.1040649414065	-883.1567382812502	-178.6963958740235	719.1600952148439	-884.6602172851565	-94.65920257568361	623.0108032226564	-888.238952636719	-74.13124847412111	616.0897216796876	-1006.158996582031	39.07794570922852	515.7849121093751	-895.1724853515627	25.31783866882325	404.4634704589845	-876.5479125976565	62.47751617431642	432.6028747558595	-879.601501464844	110.2230377197266	410.1128234863282	-906.539001464844	147.631332397461	282.0260314941407	-889.5725097656252	155.2752075195313	316.2070922851563	-970.3186035156252	133.2640991210938	211.5018310546876	-939.189147949219	291.6569824218751	359.8256835937501	-952.7174072265627	288.9911804199219	367.4715576171876	-901.0543212890627	275.3276062011719	320.7012023925782	-853.8894653320315	-4216.776367187501	853.1109008789065	-3944.779052734376	
610	3.045	-252.4852600097657	1766.344604492188	-1103.1123046875	-424.3130187988282	1681.44091796875	-1172.327270507813	-400.7406005859376	1688.967041015625	-1021.017639160156	-449.9146118164064	1535.246948242188	-1101.726196289063	-474.9019165039064	1223.894287109375	-1077.703125	-287.5825500488282	1488.292358398438	-1108.805908203125	-387.1873779296876	1546.204711914063	-1244.735717773438	-302.4812011718751	1529.603637695313	-1387.845336914063	-257.4985351562501	1547.797119140625	-1377.794067382813	-251.0769805908204	1530.210083007813	-1436.121215820313	-208.2669982910157	1528.352783203125	-1459.857666015625	-163.1939544677735	1461.291870117188	-1431.03369140625	68.72827148437501	1570.464477539063	-1503.846557617188	38.02231979370118	1570.890502929688	-1570.200927734375	127.1321029663086	1614.87451171875	-1527.4560546875	-369.4622192382813	1562.500854492188	-979.4008789062502	-232.6014556884766	1558.71533203125	-853.571472167969	-213.6080780029297	1586.271118164063	-891.1948852539065	-166.8594360351563	1584.103149414063	-854.5322265625002	-121.434555053711	1591.340942382813	-853.9941406250002	-95.67747497558595	1513.343627929688	-878.3913574218752	143.934799194336	1615.512817382813	-916.4890136718752	140.1997985839844	1626.761840820313	-841.4105224609377	222.6744537353516	1639.378784179688	-919.3470458984377	-307.2268981933594	1033.16845703125	-1176.275390625	-310.3262939453126	1053.0810546875	-954.079040527344	-489.0437927246095	1101.760375976563	-1068.120971679688	-502.0149536132814	1072.26171875	-1092.834716796875	-504.0585021972657	1076.6162109375	-1037.935302734375	-376.2440490722657	807.135437011719	-1224.626708984375	-322.0750122070313	742.4828491210939	-1217.70947265625	-277.0631103515626	757.9860229492189	-1212.99951171875	-334.0120544433594	683.9512939453126	-1201.672973632813	-274.7371215820313	522.1284790039064	-1171.039184570313	-261.0699768066407	516.7052001953126	-1053.734008789063	-268.3998413085938	336.1741333007813	-1095.659057617188	-325.8326416015626	296.5817871093751	-1150.755493164063	-287.6903686523438	287.5443115234376	-1126.09326171875	-302.5591430664063	216.9977111816407	-1084.120849609375	-379.4289245605469	131.5363922119141	-1111.155029296875	-340.3908691406251	141.0776977539063	-1030.611694335938	-448.0474243164064	118.4848098754883	-1063.882934570313	-241.8193664550782	63.20192337036134	-1040.6123046875	-235.7195281982422	56.19583892822267	-1085.621337890625	-285.1689147949219	42.70977020263673	-1138.358276367188	-275.6564636230469	810.163513183594	-867.232604980469	-211.1300506591797	797.3191528320315	-872.9087524414065	-188.8965454101563	819.7788085937502	-883.1465454101565	-179.225814819336	718.7860717773439	-884.5273437500002	-95.09878540039064	622.9000244140626	-888.1499633789065	-74.30165863037111	616.0968627929689	-1006.17919921875	38.67894744873048	515.6257934570314	-895.1475830078127	24.97153663635255	404.2720031738282	-876.668884277344	62.15343475341798	432.5462951660157	-879.6610107421877	110.0588836669922	410.1051635742189	-906.6099243164065	147.5026092529297	281.9176330566407	-889.7011718750002	155.1020965576172	316.2338256835938	-970.388610839844	133.0837554931641	211.2322998046876	-939.2730102539065	291.4383239746094	359.9734191894532	-952.7424316406252	289.0323486328126	367.1163024902344	-900.677429199219	275.1221313476563	320.6604919433594	-853.9238891601565	-4216.998535156251	853.177673339844	-3944.716796875001	
611	3.05	-252.7738342285157	1766.244018554688	-1103.048217773438	-424.0327148437501	1681.14111328125	-1172.398681640625	-400.7084045410157	1688.671752929688	-1021.104797363281	-449.705535888672	1535.0224609375	-1101.852905273438	-475.0331420898439	1223.765869140625	-1077.737060546875	-287.4698486328126	1487.998046875	-1108.987548828125	-386.4450683593751	1545.793090820313	-1244.650634765625	-302.3113403320313	1529.41015625	-1387.866333007813	-257.3943176269532	1547.582397460938	-1377.8056640625	-250.5412750244141	1529.896118164063	-1435.6796875	-208.1985931396485	1528.21337890625	-1460.127685546875	-162.9866943359375	1461.066528320313	-1431.0068359375	68.8754348754883	1570.361328125	-1503.898681640625	38.18095779418946	1570.818359375	-1570.201049804688	127.5327224731446	1614.726196289063	-1527.48876953125	-369.2324218750001	1562.333740234375	-979.5959472656252	-232.4245910644532	1558.78857421875	-853.8056640625002	-213.2519226074219	1586.224975585938	-891.5439453125002	-166.6044006347657	1584.140380859375	-854.857360839844	-121.2971496582032	1591.40576171875	-854.3084716796877	-95.57125854492189	1513.323120117188	-878.5444335937502	144.2958221435547	1615.590576171875	-916.863708496094	140.282958984375	1626.921997070313	-841.7490234375002	222.6973419189454	1639.556274414063	-919.609069824219	-307.6831970214844	1032.85302734375	-1176.123657226563	-310.8222961425782	1052.744995117188	-953.831726074219	-489.3962707519532	1101.558959960938	-1068.181030273438	-502.4266357421876	1072.083129882813	-1092.921997070313	-504.5460815429689	1076.462646484375	-1038.039306640625	-376.3937072753907	806.8786621093752	-1224.6171875	-322.1135864257813	742.2908935546876	-1217.68359375	-277.1374206542969	757.9176025390626	-1212.99853515625	-334.0029296875001	683.8131713867189	-1201.639404296875	-274.5347290039063	522.0715942382814	-1171.028686523438	-261.0103454589844	516.7073364257814	-1053.6142578125	-268.2712402343751	336.0621643066407	-1095.570434570313	-325.6546936035157	296.6263122558594	-1150.72216796875	-287.6543884277344	287.3974914550782	-1126.046264648438	-302.4476318359376	217.0411224365235	-1084.083618164063	-379.4462585449219	131.5670166015625	-1111.155395507813	-340.3591003417969	141.0822906494141	-1030.620727539063	-448.0792236328126	118.5159378051758	-1063.857543945313	-241.7994689941407	63.210506439209	-1040.606689453125	-235.7070007324219	56.15620803833009	-1085.6650390625	-285.2152099609376	42.72896194458009	-1138.356689453125	-275.9339904785157	809.9293212890627	-867.1704711914065	-211.6978454589844	796.9436035156252	-872.7144165039065	-189.38037109375	819.5562133789065	-883.0498046875002	-179.602294921875	718.5577392578126	-884.4792480468752	-95.21418762207033	622.8211669921876	-888.2225341796877	-74.57850646972658	616.0705566406251	-1006.225341796875	38.55592727661134	515.5068969726564	-895.2608032226565	24.68193435668946	404.2299804687501	-876.7171020507815	61.88404846191408	432.4725646972657	-879.7170410156252	109.7276840209961	409.9890747070314	-906.6512451171877	147.3020172119141	281.7974548339844	-889.7808837890627	154.8161926269532	316.1880187988282	-970.4929809570315	132.9381713867188	211.1277160644532	-939.2670898437502	291.2684631347657	360.0062255859376	-952.8029785156252	288.7803344726563	367.1520080566407	-900.751647949219	274.7518615722657	320.6910400390626	-853.9932861328127	-4216.908203125001	853.0784301757815	-3944.692626953126	
612	3.055	-252.6556243896485	1766.05859375	-1103.15966796875	-423.8561401367189	1680.780395507813	-1172.4404296875	-400.705780029297	1688.3115234375	-1021.175354003906	-449.5069885253907	1534.74462890625	-1101.967895507813	-475.2769470214845	1223.595092773438	-1077.792358398438	-285.3665771484376	1487.364135742188	-1109.6015625	-386.7446899414064	1545.568725585938	-1244.918090820313	-301.6406860351563	1528.9150390625	-1387.807495117188	-257.1909790039063	1547.363891601563	-1377.792114257813	-250.3637847900391	1529.571533203125	-1435.552978515625	-207.789047241211	1527.97265625	-1460.046875	-162.8529968261719	1460.899291992188	-1430.984130859375	69.04600524902345	1570.336791992188	-1503.96337890625	38.28522109985352	1570.75	-1570.16650390625	127.7399368286133	1614.583251953125	-1527.46923828125	-369.0572204589844	1562.13525390625	-979.7859497070315	-232.2046966552735	1558.75	-854.0805664062502	-213.1255035400391	1586.166870117188	-891.8193359375002	-166.1579132080078	1584.196411132813	-855.225524902344	-121.1659851074219	1591.467529296875	-854.5774536132815	-95.23793792724611	1513.40673828125	-878.8399658203127	144.4404296875	1615.803833007813	-917.2460937500002	140.5509185791016	1627.204345703125	-842.1020507812502	222.7236938476563	1639.720947265625	-919.8658447265627	-308.4199218750001	1032.79736328125	-1176.047607421875	-311.4599609375001	1052.420654296875	-953.630065917969	-489.8043212890626	1101.392456054688	-1068.136352539063	-502.8718261718751	1071.908203125	-1092.93115234375	-504.8878479003907	1076.27685546875	-1038.119506835938	-376.5258483886719	806.6777343750002	-1224.641845703125	-322.1253662109376	742.1784667968751	-1217.706176757813	-277.1710815429688	757.8676757812501	-1213.001098632813	-333.8007507324219	683.5321044921876	-1201.600341796875	-274.3399658203126	522.0310668945314	-1171.02001953125	-260.8128662109376	516.6691894531251	-1053.726196289063	-268.0503845214844	335.9717102050782	-1095.61083984375	-325.6227722167969	296.5528564453126	-1150.721923828125	-287.5713500976563	287.3656616210938	-1126.001953125	-302.4434814453126	216.9690093994141	-1084.057495117188	-379.3937683105469	131.5097351074219	-1111.175048828125	-340.3118896484376	141.0661926269532	-1030.616821289063	-448.0906982421876	118.4992218017578	-1063.878540039063	-241.8223876953126	63.23740005493165	-1040.593872070313	-236.1143798828126	56.11937332153322	-1085.115600585938	-285.1776123046876	42.76840972900391	-1138.390258789063	-276.3141784667969	809.5224609375002	-867.221374511719	-212.0730438232422	796.8057250976565	-872.6616210937502	-189.8988647460938	819.3148193359377	-883.0301513671877	-180.1205139160157	718.3446655273439	-884.3640747070315	-95.4574661254883	622.6646118164064	-888.256530761719	-74.76692199707033	616.1121826171876	-1006.244140625	38.38665771484376	515.3737182617189	-895.3123779296877	24.43179512023926	404.1253356933595	-876.7994384765627	61.69293594360353	432.3861694335939	-879.8383789062502	109.6008453369141	410.0022583007814	-906.7651977539065	147.1486511230469	281.7549133300782	-889.9009399414065	154.6361846923828	316.1648254394532	-970.6047973632815	132.8463287353516	211.0305328369141	-939.3627929687502	291.1891174316407	360.1063537597657	-952.8776855468752	288.6284484863282	367.1962890625001	-900.7852172851565	274.3934936523438	320.6504516601563	-854.0108642578127	-4216.838378906251	853.0833129882815	-3944.735351562501	
